<svg width="120" height="24" viewBox="0 0 120 24" fill="none" xmlns="http://www.w3.org/2000/svg">
<rect width="24" height="24" rx="12" fill="white"/>
<path d="M17.5 7.50503C17.5 7.50503 16.491 8.10103 15.93 8.27003C15.6289 7.92378 15.2287 7.67837 14.7835 7.56699C14.3384 7.45561 13.8697 7.48363 13.441 7.64725C13.0123 7.81088 12.6442 8.10223 12.3865 8.48189C12.1288 8.86154 11.9938 9.3112 12 9.77003V10.27C11.1213 10.2928 10.2506 10.0979 9.4655 9.70275C8.68037 9.30757 8.00516 8.72435 7.5 8.00503C7.5 8.00503 5.5 12.505 10 14.505C8.97026 15.204 7.74358 15.5545 6.5 15.505C11 18.005 16.5 15.505 16.5 9.75503C16.5 9.61603 16.486 9.47703 16.46 9.34003C16.97 8.83703 17.5 7.50503 17.5 7.50503Z" stroke="black" stroke-linecap="round" stroke-linejoin="round"/>
<rect x="32.5" y="0.5" width="23" height="23" rx="11.5" stroke="white"/>
<path d="M44 14C44.5304 14 45.0391 13.7893 45.4142 13.4142C45.7893 13.0391 46 12.5304 46 12C46 11.4696 45.7893 10.9609 45.4142 10.5858C45.0391 10.2107 44.5304 10 44 10C43.4696 10 42.9609 10.2107 42.5858 10.5858C42.2107 10.9609 42 11.4696 42 12C42 12.5304 42.2107 13.0391 42.5858 13.4142C42.9609 13.7893 43.4696 14 44 14V14Z" stroke="white" stroke-linecap="round" stroke-linejoin="round"/>
<path d="M39.5 14V10C39.5 9.33696 39.7634 8.70107 40.2322 8.23223C40.7011 7.76339 41.337 7.5 42 7.5H46C46.663 7.5 47.2989 7.76339 47.7678 8.23223C48.2366 8.70107 48.5 9.33696 48.5 10V14C48.5 14.663 48.2366 15.2989 47.7678 15.7678C47.2989 16.2366 46.663 16.5 46 16.5H42C41.337 16.5 40.7011 16.2366 40.2322 15.7678C39.7634 15.2989 39.5 14.663 39.5 14Z" stroke="white"/>
<path d="M46.75 9.25733L46.7567 9.25" stroke="white" stroke-linecap="round" stroke-linejoin="round"/>
<rect x="64.5" y="0.5" width="23" height="23" rx="11.5" stroke="white"/>
<path d="M78.5 7H77C76.337 7 75.7011 7.26339 75.2322 7.73223C74.7634 8.20107 74.5 8.83696 74.5 9.5V11H73V13H74.5V17H76.5V13H78L78.5 11H76.5V9.5C76.5 9.36739 76.5527 9.24022 76.6464 9.14645C76.7402 9.05268 76.8674 9 77 9H78.5V7Z" stroke="white" stroke-linecap="round" stroke-linejoin="round"/>
<rect x="96.5" y="0.5" width="23" height="23" rx="11.5" stroke="white"/>
<path d="M109 12L107.25 13V11L109 12Z" fill="white" stroke="white" stroke-linecap="round" stroke-linejoin="round"/>
<path d="M103 12.3527V11.6452C103 10.1977 103 9.47372 103.453 9.00822C103.906 8.54222 104.619 8.52222 106.044 8.48172C106.719 8.46272 107.409 8.44922 108 8.44922C108.591 8.44922 109.281 8.46272 109.956 8.48172C111.382 8.52222 112.095 8.54222 112.547 9.00822C113 9.47372 113 10.1982 113 11.6452V12.3527C113 13.8007 113 14.5242 112.548 14.9902C112.095 15.4557 111.382 15.4762 109.956 15.5162C109.281 15.5357 108.591 15.5492 108 15.5492C107.348 15.5473 106.696 15.5363 106.044 15.5162C104.619 15.4762 103.906 15.4562 103.453 14.9902C103 14.5242 103 13.8002 103 12.3532V12.3527Z" stroke="white"/>
</svg>
