<svg width="48" height="48" viewBox="0 0 56 56" fill="none" xmlns="http://www.w3.org/2000/svg">
<rect width="56" height="56" rx="28" fill="#616161" fill-opacity="0.7"/>
<path d="M33.9816 20.676C33.7158 20.676 33.4559 20.7548 33.2349 20.9025C33.0139 21.0502 32.8416 21.2601 32.7399 21.5057C32.6382 21.7512 32.6115 22.0215 32.6634 22.2822C32.7153 22.5429 32.8433 22.7824 33.0312 22.9703C33.2192 23.1583 33.4587 23.2863 33.7194 23.3382C33.9801 23.39 34.2503 23.3634 34.4959 23.2617C34.7415 23.16 34.9514 22.9877 35.0991 22.7667C35.2468 22.5456 35.3256 22.2858 35.3256 22.02C35.3256 21.6635 35.184 21.3217 34.9319 21.0696C34.6799 20.8176 34.338 20.676 33.9816 20.676ZM39.1336 23.3864C39.1118 22.4571 38.9378 21.5377 38.6184 20.6648C38.3336 19.9179 37.8904 19.2416 37.3192 18.6824C36.7646 18.1083 36.0867 17.6679 35.3368 17.3944C34.4662 17.0653 33.5457 16.8873 32.6152 16.868C31.428 16.8008 31.0472 16.8008 28.0008 16.8008C24.9544 16.8008 24.5736 16.8008 23.3864 16.868C22.4558 16.8873 21.5354 17.0653 20.6648 17.3944C19.9163 17.6706 19.2389 18.1107 18.6824 18.6824C18.1083 19.237 17.6679 19.9149 17.3944 20.6648C17.0653 21.5354 16.8873 22.4558 16.868 23.3864C16.8008 24.5736 16.8008 24.9544 16.8008 28.0008C16.8008 31.0472 16.8008 31.428 16.868 32.6152C16.8873 33.5457 17.0653 34.4662 17.3944 35.3368C17.6679 36.0867 18.1083 36.7646 18.6824 37.3192C19.2389 37.8909 19.9163 38.3309 20.6648 38.6072C21.5354 38.9363 22.4558 39.1143 23.3864 39.1336C24.5736 39.2008 24.9544 39.2008 28.0008 39.2008C31.0472 39.2008 31.428 39.2008 32.6152 39.1336C33.5457 39.1143 34.4662 38.9363 35.3368 38.6072C36.0867 38.3337 36.7646 37.8933 37.3192 37.3192C37.8929 36.7621 38.3365 36.0852 38.6184 35.3368C38.9378 34.4639 39.1118 33.5445 39.1336 32.6152C39.1336 31.428 39.2008 31.0472 39.2008 28.0008C39.2008 24.9544 39.2008 24.5736 39.1336 23.3864ZM37.1176 32.4808C37.1094 33.1917 36.9807 33.8961 36.7368 34.564C36.558 35.0514 36.2707 35.4918 35.8968 35.852C35.5335 36.2222 35.094 36.5088 34.6088 36.692C33.9409 36.9359 33.2365 37.0646 32.5256 37.0728C31.4056 37.1288 30.9912 37.14 28.0456 37.14C25.1 37.14 24.6856 37.14 23.5656 37.0728C22.8274 37.0866 22.0923 36.9729 21.3928 36.7368C20.9289 36.5442 20.5095 36.2583 20.1608 35.8968C19.789 35.537 19.5054 35.0962 19.332 34.6088C19.0585 33.9314 18.9069 33.211 18.884 32.4808C18.884 31.3608 18.8168 30.9464 18.8168 28.0008C18.8168 25.0552 18.8168 24.6408 18.884 23.5208C18.889 22.794 19.0217 22.0737 19.276 21.3928C19.4732 20.92 19.7758 20.4986 20.1608 20.1608C20.5011 19.7757 20.9216 19.4698 21.3928 19.2648C22.0755 19.0184 22.795 18.8897 23.5208 18.884C24.6408 18.884 25.0552 18.8168 28.0008 18.8168C30.9464 18.8168 31.3608 18.8168 32.4808 18.884C33.1917 18.8921 33.8961 19.0209 34.564 19.2648C35.0729 19.4537 35.5298 19.7608 35.8968 20.1608C36.2638 20.5048 36.5506 20.9254 36.7368 21.3928C36.9857 22.0748 37.1145 22.7948 37.1176 23.5208C37.1736 24.6408 37.1848 25.0552 37.1848 28.0008C37.1848 30.9464 37.1736 31.3608 37.1176 32.4808ZM28.0008 22.2552C26.8649 22.2574 25.7551 22.5963 24.8118 23.2289C23.8684 23.8616 23.1337 24.7597 22.7005 25.8098C22.2674 26.8599 22.1552 28.0147 22.3782 29.1285C22.6011 30.2423 23.1492 31.2651 23.9532 32.0675C24.7572 32.8699 25.781 33.416 26.8952 33.6368C28.0094 33.8576 29.1641 33.7431 30.2133 33.3079C31.2625 32.8727 32.1592 32.1363 32.79 31.1917C33.4209 30.2471 33.7576 29.1367 33.7576 28.0008C33.7591 27.2449 33.6111 26.4962 33.3222 25.7977C33.0333 25.0992 32.6091 24.4647 32.0741 23.9308C31.5391 23.3968 30.9038 22.9739 30.2047 22.6863C29.5057 22.3987 28.7567 22.2522 28.0008 22.2552ZM28.0008 31.7304C27.2631 31.7304 26.5421 31.5116 25.9287 31.1018C25.3154 30.692 24.8374 30.1095 24.5551 29.428C24.2728 28.7465 24.1989 27.9966 24.3428 27.2732C24.4868 26.5497 24.842 25.8852 25.3636 25.3636C25.8852 24.842 26.5497 24.4868 27.2732 24.3428C27.9966 24.1989 28.7465 24.2728 29.428 24.5551C30.1095 24.8374 30.692 25.3154 31.1018 25.9287C31.5116 26.5421 31.7304 27.2631 31.7304 28.0008C31.7304 28.4906 31.6339 28.9755 31.4465 29.428C31.2591 29.8805 30.9843 30.2917 30.638 30.638C30.2917 30.9843 29.8805 31.2591 29.428 31.4465C28.9755 31.6339 28.4906 31.7304 28.0008 31.7304Z" fill="white"/>
</svg>
    