<svg width="49" height="48" viewBox="0 0 49 48" fill="none" xmlns="http://www.w3.org/2000/svg">
<g clip-path="url(#clip0_5719_1047)">
<path d="M24.5 4C16.76 4 10.5 10.26 10.5 18C10.5 28.5 24.5 44 24.5 44C24.5 44 38.5 28.5 38.5 18C38.5 10.26 32.24 4 24.5 4ZM14.5 18C14.5 12.48 18.98 8 24.5 8C30.02 8 34.5 12.48 34.5 18C34.5 23.76 28.74 32.38 24.5 37.76C20.34 32.42 14.5 23.7 14.5 18Z" fill="white"/>
<path d="M24.5 23C27.2614 23 29.5 20.7614 29.5 18C29.5 15.2386 27.2614 13 24.5 13C21.7386 13 19.5 15.2386 19.5 18C19.5 20.7614 21.7386 23 24.5 23Z" fill="white"/>
</g>
<defs>
<clipPath id="clip0_5719_1047">
<rect width="48" height="48" fill="white" transform="translate(0.5)"/>
</clipPath>
</defs>
</svg>
