<svg width="49" height="48" viewBox="0 0 49 48" fill="none" xmlns="http://www.w3.org/2000/svg">
<g clip-path="url(#clip0_5719_1033)">
<path d="M13.58 10C13.7 11.78 14 13.52 14.48 15.18L12.08 17.58C11.26 15.18 10.74 12.64 10.56 10H13.58ZM33.3 34.04C35 34.52 36.74 34.82 38.5 34.94V37.92C35.86 37.74 33.32 37.22 30.9 36.42L33.3 34.04ZM15.5 6H8.5C7.4 6 6.5 6.9 6.5 8C6.5 26.78 21.72 42 40.5 42C41.6 42 42.5 41.1 42.5 40V33.02C42.5 31.92 41.6 31.02 40.5 31.02C38.02 31.02 35.6 30.62 33.36 29.88C33.16 29.8 32.94 29.78 32.74 29.78C32.22 29.78 31.72 29.98 31.32 30.36L26.92 34.76C21.26 31.86 16.62 27.24 13.74 21.58L18.14 17.18C18.7 16.62 18.86 15.84 18.64 15.14C17.9 12.9 17.5 10.5 17.5 8C17.5 6.9 16.6 6 15.5 6Z" fill="white"/>
</g>
<defs>
<clipPath id="clip0_5719_1033">
<rect width="48" height="48" fill="white" transform="translate(0.5)"/>
</clipPath>
</defs>
</svg>
